<?xml version="1.0" encoding="UTF-8"?>
<svg width="45px" height="45px" viewBox="0 0 45 45" version="1.1" xmlns="http://www.w3.org/2000/svg" xmlns:xlink="http://www.w3.org/1999/xlink">
    <title>蓝队种树员</title>
    <defs>
        <linearGradient x1="4.42913229%" y1="-345.595479%" x2="50%" y2="100%" id="linearGradient-1">
            <stop stop-color="#C2EFFF" offset="0%"></stop>
            <stop stop-color="#00212C" offset="100%"></stop>
        </linearGradient>
        <linearGradient x1="8.94011339%" y1="-193.986846%" x2="60.0636201%" y2="96.6227545%" id="linearGradient-2">
            <stop stop-color="#0FC6FF" offset="0%"></stop>
            <stop stop-color="#00478C" offset="100%"></stop>
        </linearGradient>
    </defs>
    <g id="页面-1" stroke="none" stroke-width="1" fill="none" fill-rule="evenodd">
        <g id="游戏界面" transform="translate(-608.000000, -492.000000)">
            <g id="编组-23" transform="translate(608.000000, 492.000000)">
                <g id="编组-8备份" transform="translate(8.990834, 3.000000)">
                    <path d="M17.9165299,24.3043478 C18.2017917,24.3043478 18.4415617,24.5185732 18.4735615,24.8020346 L20.0763649,39 L14.5454596,38.9993478 L14.546408,31.6399522 C14.546408,31.3650822 14.3458644,31.1370517 14.083111,31.0941943 L13.9934123,31.0869565 C13.6880012,31.0869565 13.4404166,31.3345411 13.4404166,31.6399522 L13.4404166,31.6399522 L13.4394596,38.9993478 L7.91045959,39 L9.513263,24.8020346 C9.54526285,24.5185732 9.78503283,24.3043478 10.0702947,24.3043478 L17.9165299,24.3043478 Z" id="形状结合" fill="url(#linearGradient-1)"></path>
                    <g id="编组" transform="translate(0.000000, 9.608696)">
                        <g id="编组-2" fill="#00478C">
                            <path d="M-0.620550496,5.18590432 L13.6366664,5.34173092 C15.0350111,5.35701436 16.1648612,6.48686446 16.1801446,7.88520919 C16.1950034,9.24470031 15.1049635,10.358831 13.7454724,10.3736898 C13.7275368,10.3738859 13.7095996,10.3738859 13.691664,10.3736898 L-0.565552872,10.2178632 L-0.565552872,10.2178632 L-0.620550496,5.18590432 Z" id="矩形" transform="translate(7.793546, 7.793546) scale(-1, 1) rotate(45.000000) translate(-7.793546, -7.793546) "></path>
                            <path d="M11.5453548,5.18590432 L11.8816591,5.18958002 L25.8025717,5.34173092 C27.2009164,5.35701436 28.3307665,6.48686446 28.34605,7.88520919 C28.3609088,9.24470031 27.2708689,10.358831 25.9113778,10.3736898 C25.8934422,10.3738859 25.8755049,10.3738859 25.8575693,10.3736898 L11.6003525,10.2178632 L11.6003525,10.2178632 L11.5453548,5.18590432 Z" id="矩形" transform="translate(19.959452, 7.793546) rotate(45.000000) translate(-19.959452, -7.793546) "></path>
                        </g>
                        <path d="M10.4180738,2.27373675e-12 L17.0157551,2.27373675e-12 C17.2883319,2.27401975e-12 17.5214006,0.196071169 17.5680533,0.464625989 L20.6293606,18.0869565 L20.6293606,18.0869565 L6.8044682,18.0869565 L9.86577554,0.464625989 C9.91242821,0.196071169 10.1454969,2.27336279e-12 10.4180738,2.27373675e-12 Z" id="矩形" fill="url(#linearGradient-2)"></path>
                    </g>
                    <ellipse id="椭圆形" fill="#FFD9D1" cx="13.9934123" cy="7.2173913" rx="3.31797418" ry="3.39130435"></ellipse>
                    <path d="M12.7170048,0 L15.2698198,0 C16.1196513,-1.56111522e-16 16.835929,0.634015679 16.9390924,1.47756235 L17.3113864,4.52173913 L17.3113864,4.52173913 L10.6754381,4.52173913 L11.0477322,1.47756235 C11.1508955,0.634015679 11.8671732,1.04428994e-15 12.7170048,0 Z" id="矩形" fill="#00478C"></path>
                    <rect id="矩形" fill="#00478C" x="7.3574639" y="3.95652174" width="13.2718967" height="2.26086957" rx="1.12113972"></rect>
                </g>
            </g>
        </g>
    </g>
</svg>