<?xml version="1.0" encoding="UTF-8"?>
<svg width="45px" height="45px" viewBox="0 0 45 45" version="1.1" xmlns="http://www.w3.org/2000/svg" xmlns:xlink="http://www.w3.org/1999/xlink">
    <title>蓝队捕碳员</title>
    <defs>
        <linearGradient x1="100%" y1="-8.57499534%" x2="100%" y2="138.300924%" id="linearGradient-1">
            <stop stop-color="#0A71D6" offset="0%"></stop>
            <stop stop-color="#03305B" offset="100%"></stop>
        </linearGradient>
        <linearGradient x1="-17.7988218%" y1="-129.354367%" x2="50%" y2="100%" id="linearGradient-2">
            <stop stop-color="#C2EFFF" offset="0%"></stop>
            <stop stop-color="#00212C" offset="100%"></stop>
        </linearGradient>
        <linearGradient x1="100%" y1="-5.7793232%" x2="100%" y2="107.683618%" id="linearGradient-3">
            <stop stop-color="#015DB6" offset="0%"></stop>
            <stop stop-color="#001B36" offset="100%"></stop>
        </linearGradient>
        <linearGradient x1="50%" y1="0%" x2="50%" y2="100%" id="linearGradient-4">
            <stop stop-color="#E5FFD3" offset="0%"></stop>
            <stop stop-color="#C7FFA7" offset="100%"></stop>
        </linearGradient>
        <linearGradient x1="50%" y1="0%" x2="50%" y2="100%" id="linearGradient-5">
            <stop stop-color="#E5FFD3" offset="0%"></stop>
            <stop stop-color="#C7FFA7" offset="100%"></stop>
        </linearGradient>
        <radialGradient cx="99.7272198%" cy="0.914040874%" fx="99.7272198%" fy="0.914040874%" r="258.018893%" gradientTransform="translate(0.997272,0.009140),scale(0.600601,1.000000),rotate(130.056397),translate(-0.997272,-0.009140)" id="radialGradient-6">
            <stop stop-color="#15BD1A" offset="0%"></stop>
            <stop stop-color="#81EB6B" offset="100%"></stop>
        </radialGradient>
    </defs>
    <g id="页面-1" stroke="none" stroke-width="1" fill="none" fill-rule="evenodd">
        <g id="游戏界面" transform="translate(-563.000000, -492.000000)">
            <g id="编组-21" transform="translate(563.000000, 492.000000)">
                <g id="编组-20备份-2" transform="translate(4.000000, 8.000000)">
                    <path d="M7.37824094,18.7676358 L7.37824094,9.62962963 L11.84,9.62962963 L11.84,25.9259259 L0.74,25.9259259 C0.331309285,25.9259259 1.6107248e-16,25.5946166 0,25.1859259 L0,21.7276358 C1.01940318e-13,20.092873 1.32523714,18.7676358 2.96,18.7676358 L7.37824094,18.7676358 L7.37824094,18.7676358 Z" id="矩形" fill="url(#linearGradient-1)"></path>
                    <path d="M3.86851451,9.62962963 L7.4,9.62962963 L7.4,9.62962963 L7.4,18.5192593 C7.4,18.92795 7.06869071,19.2592593 6.66,19.2592593 L1.48,19.2592593 L1.48,19.2592593 L3.14073761,10.2356864 C3.20536173,9.88455302 3.5114838,9.62962963 3.86851451,9.62962963 Z" id="矩形" fill="#DDF6FF"></path>
                    <ellipse id="椭圆形" fill="url(#linearGradient-2)" cx="6.29" cy="25.9259259" rx="4.07" ry="4.07407407"></ellipse>
                    <path d="M11.84,5.92592593 L36.26,5.92592593 C36.6686907,5.92592593 37,6.25723521 37,6.66592593 L37,25.1859259 C37,25.5946166 36.6686907,25.9259259 36.26,25.9259259 L11.1,25.9259259 L11.1,25.9259259 L11.1,6.66592593 C11.1,6.25723521 11.4313093,5.92592593 11.84,5.92592593 Z" id="矩形" fill="url(#linearGradient-3)"></path>
                    <ellipse id="椭圆形备份-19" fill="url(#linearGradient-2)" cx="27.01" cy="25.9259259" rx="4.07" ry="4.07407407"></ellipse>
                    <line x1="11" y1="9.6" x2="11" y2="25.7037037" id="路径-9" stroke="#001F3D"></line>
                    <ellipse id="椭圆形" fill="#E6F9FF" cx="24.05" cy="6.2962963" rx="6.29" ry="6.2962963"></ellipse>
                    <g id="编组-19" transform="translate(20.498000, 3.333333)">
                        <path d="M0.452628195,1.75238219 C0.452628195,1.83914216 0.915515969,3.73892608 2.67803738,3.94649015 C4.44055879,4.15405421 2.18938979,1.18601599 1.48962405,1.18601599 C0.789858302,1.18601599 0.452628195,1.66562222 0.452628195,1.75238219 Z" id="路径-6" fill="url(#linearGradient-4)"></path>
                        <path d="M6.70821079,0.448196255 C5.96214576,0.331733069 3.30572965,1.51541168 3.552,3.53548362 C3.79827035,5.55555556 6.94367608,2.00411325 7.01534473,1.59506462 C7.08701337,1.18601599 7.45427582,0.564659441 6.70821079,0.448196255 Z" id="路径-5" fill="url(#linearGradient-5)"></path>
                        <path d="M7.35900235,0.354970214 C7.33232099,0.194925148 7.20453135,0.0686900277 7.03987931,0.0399770595 C6.96475024,0.0265550211 5.20220106,-0.26737063 3.93624104,0.96575791 C3.59482503,1.29825068 3.35767694,1.75714848 3.19320044,2.23677398 C3.07611844,1.96544492 2.93007314,1.71586297 2.74909632,1.53288151 C1.90951135,0.685424197 0.453622212,0.835954906 0.391482743,0.843260573 C0.221038042,0.862119386 0.0827162861,0.985636119 0.0490135233,1.14856947 C0.0369015929,1.2085439 -0.241848341,2.62805188 0.676727481,3.5171345 C1.53211062,4.3450534 2.55003938,4.44376485 3.23831299,4.44444444 C3.9330814,4.44444444 5.37843843,4.44444444 6.51309811,3.34638578 C7.65846544,2.23779337 7.37181642,0.431424863 7.35900235,0.354970214 Z M1.56704213,2.92435612 L2.17105883,3.53548362 C1.8524624,3.43354408 1.53105741,3.26296527 1.23510502,2.97651518 C0.819788687,2.57453363 0.776080417,1.95830915 0.792756263,1.59506462 C1.16963039,1.60406928 1.80120612,1.68086373 2.17878238,2.06194768 C2.33799283,2.22250244 2.47104853,2.5143893 2.57724734,2.84025601 L2.13788268,2.39562975 C1.77522691,2.03051632 1.20684385,2.55975239 1.56704213,2.92435612 Z M5.95454503,2.80593636 C5.43899808,3.30476048 4.83463031,3.5164549 4.29205093,3.60854028 L5.18341879,2.77518461 C5.55923971,2.42332332 5.01104321,1.87403914 4.63469569,2.22522083 L3.79827035,3.00726694 C3.9236025,2.45883226 4.13529798,1.85670942 4.49637393,1.50484814 C5.04843221,0.967287003 5.83904285,0.740131746 6.60613178,0.768165117 C6.62895136,1.24405283 6.58418987,2.19616806 5.95454503,2.80593636 Z" id="形状" fill="url(#radialGradient-6)" fill-rule="nonzero"></path>
                    </g>
                    <rect id="矩形" fill="#52D748" x="23.31" y="7.5" width="1" height="3" rx="0.37"></rect>
                </g>
            </g>
        </g>
    </g>
</svg>