<?xml version="1.0" encoding="UTF-8"?>
<svg width="45px" height="45px" viewBox="0 0 45 45" version="1.1" xmlns="http://www.w3.org/2000/svg" xmlns:xlink="http://www.w3.org/1999/xlink">
    <title>蓝队人加树</title>
    <defs>
        <linearGradient x1="26.4049817%" y1="-345.595479%" x2="50%" y2="100%" id="linearGradient-1">
            <stop stop-color="#C2EFFF" offset="0%"></stop>
            <stop stop-color="#00212C" offset="100%"></stop>
        </linearGradient>
        <linearGradient x1="29.4579414%" y1="-6.3981439%" x2="69.9955588%" y2="84.2857708%" id="linearGradient-2">
            <stop stop-color="#E6F9FF" offset="0%"></stop>
            <stop stop-color="#1AC0F1" offset="100%"></stop>
        </linearGradient>
        <linearGradient x1="21.460952%" y1="5.26072288%" x2="43.8463387%" y2="54.9620925%" id="linearGradient-3">
            <stop stop-color="#FFFFFF" offset="0%"></stop>
            <stop stop-color="#4FD1F0" offset="100%"></stop>
        </linearGradient>
        <linearGradient x1="18.2565394%" y1="-9.99843901%" x2="70.5694173%" y2="176.069597%" id="linearGradient-4">
            <stop stop-color="#1ED5FF" offset="0%"></stop>
            <stop stop-color="#003291" offset="100%"></stop>
        </linearGradient>
        <linearGradient x1="20.2302199%" y1="5.70442273%" x2="60.7108715%" y2="100%" id="linearGradient-5">
            <stop stop-color="#7FEEFF" offset="0%"></stop>
            <stop stop-color="#02A2D8" offset="100%"></stop>
        </linearGradient>
        <linearGradient x1="3.34892167%" y1="-345.595479%" x2="50%" y2="100%" id="linearGradient-6">
            <stop stop-color="#C2EFFF" offset="0%"></stop>
            <stop stop-color="#00212C" offset="100%"></stop>
        </linearGradient>
        <linearGradient x1="7.96683094%" y1="-193.986846%" x2="60.3021678%" y2="96.6227545%" id="linearGradient-7">
            <stop stop-color="#0FC6FF" offset="0%"></stop>
            <stop stop-color="#00478C" offset="100%"></stop>
        </linearGradient>
    </defs>
    <g id="页面-1" stroke="none" stroke-width="1" fill="none" fill-rule="evenodd">
        <g id="游戏界面" transform="translate(-608.000000, -447.000000)">
            <g id="编组-43" transform="translate(608.000000, 447.000000)">
                <g id="编组-42" transform="translate(4.000000, 4.000000)">
                    <g id="编组-3备份">
                        <path d="M13.4193526,24.1079766 L15.5926848,27.1668478 L14.9568478,36.493663 C15.9499415,36.831221 17.1309922,37 18.5,37 C19.8690078,37 21.0500585,36.831221 22.0431522,36.493663 L21.3530217,26.8768804 L23.4743287,23.8592221 L21.3530217,22.7743096 L19.5583356,24.1079766 L19.1273913,20.1205239 L17.7800212,20.4004683 L17.2540652,24.3954674 L14.9568478,22.7743096 L13.4193526,24.1079766 Z" id="路径-2" fill="url(#linearGradient-1)"></path>
                        <circle id="椭圆形备份-2" fill="url(#linearGradient-2)" cx="16.0869565" cy="10.0543478" r="10.0543478"></circle>
                        <circle id="椭圆形备份" fill="url(#linearGradient-3)" cx="24.7336957" cy="6.23369565" r="4.625"></circle>
                        <circle id="椭圆形" fill="url(#linearGradient-4)" cx="26.9456522" cy="15.2826087" r="10.0543478"></circle>
                        <circle id="椭圆形备份" fill="url(#linearGradient-5)" cx="10.0543478" cy="15.2826087" r="10.0543478"></circle>
                    </g>
                    <g id="编组-8备份-3" transform="translate(19.058864, 12.000000)">
                        <path d="M11.5618423,15.5797101 C11.7466747,15.5797101 11.9020921,15.7183863 11.9230672,15.9020247 L12.962236,25 L9.37469047,24.9997101 L9.37562438,20.2861974 C9.37562438,20.1128747 9.2526818,19.9682668 9.08924596,19.934823 L9.01696322,19.9275362 C8.81888014,19.9275362 8.65830206,20.0881143 8.65830206,20.2861974 L8.65830206,20.2861974 L8.65769047,24.9997101 L5.07169047,25 L6.11085925,15.9020247 C6.13183439,15.7183863 6.28725177,15.5797101 6.47208418,15.5797101 L11.5618423,15.5797101 Z" id="形状结合" fill="url(#linearGradient-6)"></path>
                        <g id="编组" transform="translate(0.000000, 6.159420)">
                            <g id="编组-2" fill="#00478C">
                                <path d="M-0.419716655,3.34622552 L8.77277835,3.39286095 C9.67134759,3.39741958 10.3986545,4.12472649 10.4032131,5.02329574 C10.4077124,5.91017034 9.69240591,6.63277165 8.80553131,6.63727095 C8.80010021,6.63729851 8.79466901,6.63729851 8.78923791,6.63727095 L-0.40325709,6.59063552 L-0.40325709,6.59063552 L-0.419716655,3.34622552 Z" id="矩形" transform="translate(4.995863, 4.995863) scale(-1, 1) rotate(45.000000) translate(-4.995863, -4.995863) "></path>
                                <path d="M7.47082885,3.34622552 L7.68766466,3.34732557 L16.6633239,3.39286095 C17.5618931,3.39741958 18.2892,4.12472649 18.2937586,5.02329574 C18.2982579,5.91017034 17.5829514,6.63277165 16.6960768,6.63727095 C16.6906457,6.63729851 16.6852145,6.63729851 16.6797834,6.63727095 L7.48728842,6.59063552 L7.48728842,6.59063552 L7.47082885,3.34622552 Z" id="矩形" transform="translate(12.886409, 4.995863) rotate(45.000000) translate(-12.886409, -4.995863) "></path>
                            </g>
                            <path d="M6.69745921,9.09494702e-13 L10.9778061,9.09494702e-13 C11.1543209,9.08936435e-13 11.305334,0.126785209 11.3358906,0.300635112 L13.3208971,11.5942029 L13.3208971,11.5942029 L4.35436815,11.5942029 L6.33937471,0.300635112 C6.36993133,0.126785209 6.52094435,9.10395792e-13 6.69745921,9.09494702e-13 Z" id="矩形" fill="url(#linearGradient-7)"></path>
                        </g>
                        <ellipse id="椭圆形" fill="#FFD9D1" cx="9.01696322" cy="4.62653289" rx="2.15196696" ry="2.17391304"></ellipse>
                        <path d="M8.18773287,0 L9.84619358,0 C10.396786,-3.23186785e-16 10.8610454,0.410353503 10.928659,0.956778589 L11.1689302,2.89855072 L11.1689302,2.89855072 L6.86499627,2.89855072 L7.10526746,0.956778589 C7.17288106,0.410353503 7.63714048,-1.20902425e-16 8.18773287,0 Z" id="矩形" fill="#00478C"></path>
                        <rect id="矩形" fill="#00478C" x="4.71302931" y="2.53623188" width="8.60786783" height="1.44927536" rx="0.724637681"></rect>
                    </g>
                </g>
            </g>
        </g>
    </g>
</svg>