<?xml version="1.0" encoding="UTF-8"?>
<svg width="45px" height="45px" viewBox="0 0 45 45" version="1.1" xmlns="http://www.w3.org/2000/svg" xmlns:xlink="http://www.w3.org/1999/xlink">
    <title>红队转化工厂</title>
    <defs>
        <filter x="-17.6%" y="-17.6%" width="135.1%" height="135.1%" filterUnits="objectBoundingBox" id="filter-1">
            <feOffset dx="0" dy="0" in="SourceAlpha" result="shadowOffsetOuter1"></feOffset>
            <feGaussianBlur stdDeviation="1.5" in="shadowOffsetOuter1" result="shadowBlurOuter1"></feGaussianBlur>
            <feColorMatrix values="0 0 0 0 0   0 0 0 0 0.188149444   0 0 0 0 0.242456851  0 0 0 0.0602549306 0" type="matrix" in="shadowBlurOuter1" result="shadowMatrixOuter1"></feColorMatrix>
            <feMerge>
                <feMergeNode in="shadowMatrixOuter1"></feMergeNode>
                <feMergeNode in="SourceGraphic"></feMergeNode>
            </feMerge>
        </filter>
        <linearGradient x1="32.8440596%" y1="-34.8698796%" x2="58.2899906%" y2="100%" id="linearGradient-2">
            <stop stop-color="#FFBD9B" offset="0%"></stop>
            <stop stop-color="#FF6739" offset="100%"></stop>
        </linearGradient>
        <linearGradient x1="36.0353609%" y1="-34.8698796%" x2="56.7479091%" y2="100%" id="linearGradient-3">
            <stop stop-color="#FFBD9B" offset="0%"></stop>
            <stop stop-color="#FF6739" offset="100%"></stop>
        </linearGradient>
    </defs>
    <g id="页面-1" stroke="none" stroke-width="1" fill="none" fill-rule="evenodd">
        <g id="游戏界面" transform="translate(-833.000000, -492.000000)">
            <g id="编组-30" transform="translate(833.000000, 492.000000)">
                <g id="编组-21备份-6" filter="url(#filter-1)" transform="translate(4.000000, 4.000000)">
                    <path d="M17.8845785,15.5266688 L25.2845785,11.2657675 C25.6655398,11.046411 26.1344602,11.046411 26.5154215,11.2657675 L33.9154215,15.5266688 C34.2977177,15.7467939 34.5333333,16.1543436 34.5333333,16.5954847 L34.5333333,35.7666667 L34.5333333,35.7666667 L17.2666667,35.7666667 L17.2666667,16.5954847 C17.2666667,16.1543436 17.5022823,15.7467939 17.8845785,15.5266688 Z" id="形状结合" fill="url(#linearGradient-2)"></path>
                    <rect id="矩形" fill="#FFF4A7" x="20.35" y="19.7333333" width="11.1" height="3.7" rx="0.616666667"></rect>
                    <polygon id="矩形" fill="url(#linearGradient-3)" points="6.16666667 12.3333333 13.5666667 12.3333333 17.2666667 35.7666667 2.46666667 35.7666667"></polygon>
                    <rect id="矩形" fill="#360D00" x="0" y="34.5333333" width="37" height="2.46666667" rx="1.23333333"></rect>
                    <rect id="矩形" fill="#FF7950" x="3.7" y="11.1" width="12.3333333" height="3.7" rx="0.616666667"></rect>
                    <path d="M16.6243326,0.995780541 C12.5959626,1.83582262 10.5565007,3.87500829 10.5059469,7.11333756 C10.455393,10.3516668 12.4948549,9.90606741 16.6243326,5.77653931 C17.480778,3.81310084 17.6948894,2.49945477 17.2666667,1.83560107 C16.8384439,1.17174738 16.6243326,0.891807202 16.6243326,0.995780541 Z" id="路径-4" fill="#C7FFA7"></path>
                    <path d="M7.84553551,2.58476718 C4.69975881,3.5229544 3.12687046,5.09562972 3.12687046,7.30279315 C3.12687046,9.50995657 4.69975881,9.16629821 7.84553551,6.27181806 C8.50604951,4.75756105 8.67117801,3.74444155 8.34092101,3.23245956 C8.01066401,2.72047758 7.84553551,2.50458012 7.84553551,2.58476718 Z" id="路径-4备份" fill="#C7FFA7" transform="translate(5.816460, 5.651813) rotate(-75.000000) translate(-5.816460, -5.651813) "></path>
                    <path d="M18.252697,0.799329544 C18.1946488,0.438936632 17.9166289,0.154677678 17.558411,0.0900212003 C17.3949597,0.0597971663 13.560347,-0.602070922 10.8061167,2.17471439 C10.06333,2.92342875 9.54738918,3.95678465 9.1895531,5.03681564 C8.93482881,4.42583105 8.61709176,3.86381705 8.2233575,3.45177547 C6.39675136,1.54345291 3.22931013,1.8824212 3.09411913,1.89887225 C2.7232986,1.94133893 2.42236495,2.21947656 2.34904102,2.58637338 C2.32269023,2.72142508 1.71624019,5.91790362 3.7146993,7.91995894 C5.57567605,9.78428448 7.79028801,10.006565 9.28770024,10.0080954 C10.7992426,10.0080954 13.9437701,10.0080954 16.4123426,7.53546332 C18.9042107,5.03911113 18.2805753,0.971491764 18.252697,0.799329544 Z M5.65167325,6.58512786 L6.96577564,7.96127787 C6.27263532,7.73172825 5.57338467,7.3476152 4.92950887,6.70258076 C4.02594413,5.79739006 3.93085215,4.40976258 3.96713223,3.59180074 C4.78706185,3.61207763 6.16112184,3.78500501 6.98257904,4.64313803 C7.32895826,5.00467869 7.61843504,5.66195579 7.84948181,6.39574942 L6.89359739,5.39453047 C6.1046013,4.57236023 4.8680237,5.76410537 5.65167325,6.58512786 Z M15.1971511,6.31846772 C14.075524,7.44173055 12.7606579,7.91842861 11.5802189,8.12578844 L13.5194842,6.24922025 C14.3371225,5.45689145 13.1444628,4.22000155 12.3256789,5.01080001 L10.5059469,6.77182823 C10.7786203,5.53685124 11.2391862,4.18097812 12.0247452,3.38864932 C13.2258066,2.17815763 14.9458639,1.66664455 16.6147472,1.72977069 C16.6643936,2.80138486 16.5670103,4.94537837 15.1971511,6.31846772 Z" id="形状" fill="#63CA27" fill-rule="nonzero"></path>
                </g>
            </g>
        </g>
    </g>
</svg>