<?xml version="1.0" encoding="UTF-8"?>
<svg width="45px" height="45px" viewBox="0 0 45 45" version="1.1" xmlns="http://www.w3.org/2000/svg" xmlns:xlink="http://www.w3.org/1999/xlink">
    <title>红队树</title>
    <defs>
        <linearGradient x1="17.0352916%" y1="0%" x2="74.9067888%" y2="107.013018%" id="linearGradient-1">
            <stop stop-color="#FF8661" offset="0%"></stop>
            <stop stop-color="#C44703" offset="100%"></stop>
        </linearGradient>
        <linearGradient x1="15.7970261%" y1="0%" x2="66.9166333%" y2="100%" id="linearGradient-2">
            <stop stop-color="#FFBD9B" offset="0%"></stop>
            <stop stop-color="#FF6739" offset="100%"></stop>
        </linearGradient>
        <linearGradient x1="100%" y1="-96.3310503%" x2="100%" y2="110.03447%" id="linearGradient-3">
            <stop stop-color="#FF7950" offset="0%"></stop>
            <stop stop-color="#8C2403" offset="100%"></stop>
        </linearGradient>
        <linearGradient x1="-17.9346231%" y1="-124.953201%" x2="50%" y2="98.7730529%" id="linearGradient-4">
            <stop stop-color="#CF5F3D" offset="0%"></stop>
            <stop stop-color="#380D00" offset="100%"></stop>
        </linearGradient>
        <linearGradient x1="100%" y1="-5.7793232%" x2="100%" y2="121.006921%" id="linearGradient-5">
            <stop stop-color="#AC2E07" offset="0%"></stop>
            <stop stop-color="#2A0A00" offset="100%"></stop>
        </linearGradient>
    </defs>
    <g id="页面-1" stroke="none" stroke-width="1" fill="none" fill-rule="evenodd">
        <g id="游戏界面" transform="translate(-788.000000, -492.000000)">
            <g id="编组-25备份" transform="translate(788.000000, 492.000000)">
                <g id="编组-3备份-2" transform="translate(4.000000, 4.000000)">
                    <circle id="椭圆形备份-2" fill="#FF9373" cx="16.0869565" cy="10.0543478" r="10.0543478"></circle>
                    <circle id="椭圆形备份" fill="#FF7C54" cx="24.7336957" cy="6.23369565" r="4.625"></circle>
                    <circle id="椭圆形" fill="url(#linearGradient-1)" cx="26.9456522" cy="15.2826087" r="10.0543478"></circle>
                    <circle id="椭圆形备份" fill="url(#linearGradient-2)" cx="10.0543478" cy="15.2826087" r="10.0543478"></circle>
                </g>
                <g id="编组-20备份-4" transform="translate(13.000000, 17.000000)">
                    <path d="M5.98235752,15.0141087 L5.98235752,7.7037037 L9.6,7.7037037 L9.6,20.7407407 L0.6,20.7407407 C0.26862915,20.7407407 -2.92485682e-16,20.4721116 0,20.1407407 L0,17.4141087 C8.15500897e-14,16.0886253 1.0745166,15.0141087 2.4,15.0141087 L5.98235752,15.0141087 L5.98235752,15.0141087 Z" id="矩形" fill="url(#linearGradient-3)"></path>
                    <path d="M3.135413,7.7037037 L6,7.7037037 L6,7.7037037 L6,14.8074074 C6,15.1387783 5.73137085,15.4074074 5.4,15.4074074 L1.2,15.4074074 L1.2,15.4074074 L2.54558647,8.19368251 C2.59856912,7.90964112 2.8464724,7.7037037 3.135413,7.7037037 Z" id="矩形" fill="#FFF1F1"></path>
                    <ellipse id="椭圆形" fill="url(#linearGradient-4)" cx="5.1" cy="20.7407407" rx="3.3" ry="3.25925926"></ellipse>
                    <path d="M9.6,4.74074074 L29.4,4.74074074 C29.7313708,4.74074074 30,5.00936989 30,5.34074074 L30,20.1407407 C30,20.4721116 29.7313708,20.7407407 29.4,20.7407407 L9,20.7407407 L9,20.7407407 L9,5.34074074 C9,5.00936989 9.26862915,4.74074074 9.6,4.74074074 Z" id="矩形" fill="url(#linearGradient-5)"></path>
                    <line x1="9.3" y1="7.6" x2="9.3" y2="20.8" id="路径-9" stroke="#360D00"></line>
                    <ellipse id="椭圆形备份-19" fill="url(#linearGradient-4)" cx="21.9" cy="20.7407407" rx="3.3" ry="3.25925926"></ellipse>
                    <ellipse id="椭圆形" fill="#FFF0EB" cx="19.5" cy="5.03703704" rx="5.1" ry="5.03703704"></ellipse>
                    <g id="编组-19" transform="translate(16.620000, 2.666667)">
                        <path d="M0.366995834,1.40190575 C0.366995834,1.47131373 0.742310245,2.99114086 2.17138166,3.15719212 C3.60045307,3.32324337 1.77518091,0.948812792 1.20780328,0.948812792 C0.640425651,0.948812792 0.366995834,1.33249778 0.366995834,1.40190575 Z" id="路径-6" fill="#C7FFA7"></path>
                        <path d="M5.43908983,0.358557004 C4.83417224,0.265386455 2.68032134,1.21232934 2.88,2.82838689 C3.07967866,4.44444444 5.63000764,1.6032906 5.68811735,1.2760517 C5.74622706,0.948812792 6.04400742,0.451727553 5.43908983,0.358557004 Z" id="路径-5" fill="#C7FFA7"></path>
                        <path d="M5.96675866,0.283976171 C5.94512513,0.155940119 5.84151191,0.0549520222 5.70801025,0.0319816476 C5.64709479,0.0212440169 4.21800086,-0.213896504 3.19154679,0.772606328 C2.91472299,1.03860055 2.72244076,1.40571878 2.58908144,1.78941918 C2.49415009,1.57235594 2.37573498,1.37269037 2.22899702,1.22630521 C1.54825245,0.548339358 0.367801794,0.668763925 0.31741844,0.674608458 C0.179220034,0.689695509 0.067067259,0.788508895 0.0397406945,0.918855577 C0.0299202104,0.966835117 -0.19609325,2.1024415 0.548697957,2.8137076 C1.24225186,3.47604272 2.0675995,3.55501188 2.62565918,3.55555556 C3.18898492,3.55555556 4.36089602,3.55555556 5.28089036,2.67710863 C6.20956657,1.7902347 5.97714845,0.34513989 5.96675866,0.283976171 Z M1.2705747,2.3394849 L1.76031797,2.82838689 C1.50199654,2.74683527 1.2413979,2.61037221 1.00143651,2.38121215 C0.66469353,2.0596269 0.629254392,1.56664732 0.642775348,1.2760517 C0.948348962,1.28325542 1.46043739,1.34469098 1.76658031,1.64955814 C1.89566986,1.77800195 2.00355286,2.01151144 2.08966001,2.27220481 L1.73341839,1.9165038 C1.43937317,1.62441306 0.978522044,2.04780192 1.2705747,2.3394849 Z M4.82800948,2.24474909 C4.40999844,2.64380838 3.91997052,2.81316392 3.4800413,2.88683222 L4.202772,2.22014768 C4.50749165,1.93865866 4.063008,1.49923131 3.75786137,1.78017666 L3.07967866,2.40581355 C3.18129932,1.96706581 3.35294431,1.48536754 3.64570859,1.20387851 C4.09332341,0.773829603 4.73435907,0.592105397 5.35632306,0.614532094 C5.37482542,0.995242267 5.33853233,1.75693445 4.82800948,2.24474909 Z" id="形状" fill="#63CA27" fill-rule="nonzero"></path>
                    </g>
                    <rect id="矩形" fill="#52D748" x="18.9" y="6" width="1" height="2.4" rx="0.3"></rect>
                </g>
            </g>
        </g>
    </g>
</svg>