<?xml version="1.0" encoding="UTF-8"?>
<svg width="45px" height="45px" viewBox="0 0 45 45" version="1.1" xmlns="http://www.w3.org/2000/svg" xmlns:xlink="http://www.w3.org/1999/xlink">
    <title>红队树</title>
    <defs>
        <linearGradient x1="37.8105109%" y1="-247.625196%" x2="50%" y2="100%" id="linearGradient-1">
            <stop stop-color="#FFB08D" offset="0%"></stop>
            <stop stop-color="#321A12" offset="100%"></stop>
        </linearGradient>
        <linearGradient x1="23.5951705%" y1="-19.0627561%" x2="50%" y2="52.9524674%" id="linearGradient-2">
            <stop stop-color="#FFFEFE" offset="0%"></stop>
            <stop stop-color="#EC6339" offset="100%"></stop>
        </linearGradient>
        <linearGradient x1="23.5951705%" y1="-19.0627561%" x2="50%" y2="73.2489228%" id="linearGradient-3">
            <stop stop-color="#FFFEFE" offset="0%"></stop>
            <stop stop-color="#EC6339" offset="100%"></stop>
        </linearGradient>
        <linearGradient x1="17.0352916%" y1="0%" x2="74.9067888%" y2="107.013018%" id="linearGradient-4">
            <stop stop-color="#FF8661" offset="0%"></stop>
            <stop stop-color="#C44703" offset="100%"></stop>
        </linearGradient>
        <linearGradient x1="15.7970261%" y1="0%" x2="66.9166333%" y2="100%" id="linearGradient-5">
            <stop stop-color="#FFBD9B" offset="0%"></stop>
            <stop stop-color="#FF6739" offset="100%"></stop>
        </linearGradient>
    </defs>
    <g id="页面-1" stroke="none" stroke-width="1" fill="none" fill-rule="evenodd">
        <g id="游戏界面" transform="translate(-788.000000, -447.000000)">
            <g id="编组-25" transform="translate(788.000000, 447.000000)">
                <g id="编组-3备份-2" transform="translate(4.000000, 4.000000)">
                    <path d="M13.4193526,24.1079766 L15.5926848,27.1668478 L14.9568478,36.493663 C15.9499415,36.831221 17.1309922,37 18.5,37 C19.8690078,37 21.0500585,36.831221 22.0431522,36.493663 L21.3530217,26.8768804 L23.4743287,23.8592221 L21.3530217,22.7743096 L19.5583356,24.1079766 L19.1273913,20.1205239 L17.7800212,20.4004683 L17.2540652,24.3954674 L14.9568478,22.7743096 L13.4193526,24.1079766 Z" id="路径-2" fill="url(#linearGradient-1)"></path>
                    <circle id="椭圆形备份-2" fill="url(#linearGradient-2)" cx="16.0869565" cy="10.0543478" r="10.0543478"></circle>
                    <circle id="椭圆形备份" fill="url(#linearGradient-3)" cx="24.7336957" cy="6.23369565" r="4.625"></circle>
                    <circle id="椭圆形" fill="url(#linearGradient-4)" cx="26.9456522" cy="15.2826087" r="10.0543478"></circle>
                    <circle id="椭圆形备份" fill="url(#linearGradient-5)" cx="10.0543478" cy="15.2826087" r="10.0543478"></circle>
                </g>
            </g>
        </g>
    </g>
</svg>