<?xml version="1.0" encoding="UTF-8"?>
<svg width="42px" height="44px" viewBox="0 0 42 44" version="1.1" xmlns="http://www.w3.org/2000/svg" xmlns:xlink="http://www.w3.org/1999/xlink">
    <title>领先</title>
    <defs>
        <linearGradient x1="50%" y1="0%" x2="50%" y2="100%" id="linearGradient-1">
            <stop stop-color="#FFE733" offset="0%"></stop>
            <stop stop-color="#FFB617" offset="100%"></stop>
        </linearGradient>
    </defs>
    <g id="页面-1" stroke="none" stroke-width="1" fill="none" fill-rule="evenodd">
        <g id="最新备份-3" transform="translate(-1140.000000, -912.000000)">
            <g id="noun_coin_2755837" transform="translate(1140.000000, 912.000000)">
                <path d="M21,0 C9.42068373,0 0,8.55835372 0,19.0784473 L0,24.9209835 C0,28.915674 1.36081243,32.6259135 3.67992518,35.6938354 C3.68168699,35.6954361 3.68247,35.6976769 3.68423181,35.6992776 C7.47299697,40.7076333 13.8202445,44 21,44 C28.1797556,44 34.5270031,40.7076333 38.3157682,35.6992776 C38.31753,35.697677 38.3183521,35.6954006 38.3200748,35.6937999 C40.6391484,32.6258779 42,28.915674 42,24.9209836 L42,19.0784473 C42,8.55835372 32.5793163,0 21,0 Z" id="路径" fill="url(#linearGradient-1)" fill-rule="nonzero"></path>
                <path d="M21.0749085,37.0778782 C21.0491783,37.0750545 21.0265563,37.0641526 21,37.0641526 C20.9734437,37.0641526 20.950861,37.0750545 20.9251309,37.0778782 C10.0343308,37.0408476 1.18639906,28.9815527 1.18639906,19.0784501 C1.18639906,9.15311494 10.0746964,1.07787824 21,1.07787824 C31.9253037,1.07787824 40.8136011,9.15311494 40.8136011,19.0784501 C40.8136011,28.9815527 31.9657087,37.0408476 21.0749085,37.0778782 Z" id="路径" fill="#FFEC65" fill-rule="nonzero"></path>
                <path d="M21.5,19.5 C23.7060252,19.5 25.7017331,20.4491728 27.1469011,21.9793507 C28.4982125,23.4101511 29.3689367,25.348318 29.4863909,27.5 L29.4863909,27.5 L13.5136091,27.5 C13.6310633,25.348318 14.5017875,23.4101511 15.8530989,21.9793507 C17.2982669,20.4491728 19.2939748,19.5 21.5,19.5 Z" id="椭圆形备份-20" stroke="#FF7C33" transform="translate(21.500000, 23.500000) rotate(-180.000000) translate(-21.500000, -23.500000) "></path>
                <path d="M12.982158,16.2404331 C13.0888759,16.4543502 13.3151913,16.5797101 13.5519332,16.5797101 C13.6408648,16.5797101 13.731023,16.5618837 13.8175012,16.5245057 L19.022756,14.243299 C19.2435516,14.1461163 19.3846154,13.9385248 19.3846154,13.7096565 C19.3846154,13.4807883 19.2435516,13.2731968 19.022756,13.176014 L13.8175012,10.8953823 C13.5010276,10.7590965 13.1293551,10.8856065 12.9821581,11.179455 C12.8355744,11.4744535 12.9711183,11.8246563 13.2851387,11.9626673 L17.2729514,13.7096565 L13.2851387,15.4572207 C12.9711183,15.5952317 12.8355744,15.9454346 12.982158,16.2404331 Z" id="路径" fill="#FF7C33" fill-rule="nonzero"></path>
                <path d="M23.6233978,14.2434004 L28.8286526,16.5245081 C28.9151309,16.5618845 29.0052891,16.5797101 29.0942206,16.5797101 C29.3309625,16.5797101 29.5572779,16.4543556 29.6639958,16.2404478 C29.8105795,15.9454621 29.6750356,15.5952744 29.3610152,15.4572694 L25.3732024,13.709781 L29.3610152,11.9628676 C29.6750356,11.8248626 29.8105795,11.4746748 29.6639958,11.1796891 C29.5174121,10.8858535 29.1451263,10.7587738 28.8286527,10.8956288 L23.6233978,13.1761616 C23.4026023,13.2733402 23.2615385,13.4809227 23.2615385,13.709781 C23.2615385,13.9386393 23.4026022,14.1462218 23.6233978,14.2434004 Z" id="路径" fill="#FF7C33" fill-rule="nonzero"></path>
            </g>
        </g>
    </g>
</svg>